<svg width="61" height="60" viewBox="0 0 61 60" fill="none" xmlns="http://www.w3.org/2000/svg">
<rect x="0.699219" width="60" height="60" rx="30" fill="#5554ED"/>
<path opacity="0.8" d="M31.8992 20.5201L31.8692 20.5901L28.9692 27.3201H26.1192C25.4392 27.3201 24.7992 27.4501 24.1992 27.7101L25.9492 23.5301L25.9892 23.4401L26.0492 23.2801C26.0792 23.2101 26.0992 23.1501 26.1292 23.1001C27.4392 20.0701 28.9192 19.3801 31.8992 20.5201Z" fill="white"/>
<path d="M37.2888 27.52C36.8388 27.39 36.3687 27.32 35.8787 27.32H28.9688L31.8687 20.59L31.8987 20.52C32.0387 20.57 32.1887 20.64 32.3387 20.69L34.5487 21.62C35.7787 22.13 36.6388 22.66 37.1687 23.3C37.2587 23.42 37.3387 23.53 37.4187 23.66C37.5087 23.8 37.5788 23.94 37.6188 24.09C37.6588 24.18 37.6887 24.26 37.7087 24.35C37.9687 25.2 37.8088 26.23 37.2888 27.52Z" fill="white"/>
<path opacity="0.4" d="M40.7583 32.1998V34.1498C40.7583 34.3498 40.7483 34.5498 40.7383 34.7398C40.5483 38.2398 38.5983 39.9998 34.8983 39.9998H27.0983C26.8483 39.9998 26.6183 39.9798 26.3883 39.9498C23.2083 39.7398 21.5083 38.0398 21.2883 34.8598C21.2583 34.6198 21.2383 34.3898 21.2383 34.1498V32.1998C21.2383 30.1898 22.4583 28.4598 24.1983 27.7098C24.7983 27.4498 25.4383 27.3198 26.1183 27.3198H35.8783C36.3683 27.3198 36.8383 27.3898 37.2883 27.5198C39.2883 28.1298 40.7583 29.9898 40.7583 32.1998Z" fill="white"/>
<path opacity="0.6" d="M25.9483 23.5298L24.1983 27.7098C22.4583 28.4598 21.2383 30.1898 21.2383 32.1998V29.2698C21.2383 26.4298 23.2583 24.0598 25.9483 23.5298Z" fill="white"/>
<path opacity="0.6" d="M40.7591 29.2698V32.1998C40.7591 29.9898 39.2891 28.1298 37.2891 27.5198C37.8091 26.2298 37.9691 25.1998 37.7091 24.3498C37.6891 24.2598 37.6591 24.1798 37.6191 24.0898C39.4891 25.0598 40.7591 27.0298 40.7591 29.2698Z" fill="white"/>
<path d="M33.5 34.75H28.5C28.09 34.75 27.75 34.41 27.75 34C27.75 33.59 28.09 33.25 28.5 33.25H33.5C33.91 33.25 34.25 33.59 34.25 34C34.25 34.41 33.91 34.75 33.5 34.75Z" fill="white"/>
</svg>
